# xmcd
#
# Track frame offsets: 
#        150
#        14078
#        31054
#        47471
#        73753
#
# Disc length: 1056 seconds
#
# Revision: 0
# Processed by: cddbd v1.5.2PL0 Copyright (c) Steve Scherf et al.
# Submitted via: ExactAudioCopy v1.0b4
#
DISCID=3a041e05
DTITLE=Clubbiators - Let The Games Begin
DYEAR=1900
DGENRE=
TTITLE0=Let The Games Begin (Short Sport Edit)
TTITLE1=Let The Games Begin (Long Sport Edit)
TTITLE2=Let The Show Begin (Showtime Version)
TTITLE3=Let The Show Begin (Club Mix)
TTITLE4=Clubbiators Triumph (Classic Edit)
EXTD=
EXTT0=
EXTT1=
EXTT2=
EXTT3=
EXTT4=
PLAYORDER=
